<svg width="37" height="37" viewBox="0 0 37 37" fill="none" xmlns="http://www.w3.org/2000/svg">
<path d="M6.16664 29.0219L4.89477 28.4052C4.09824 28.0712 3.55866 27.4995 3.27602 26.6901C2.99338 25.8807 3.03192 25.0778 3.39164 24.2812L6.16664 18.2688V29.0219ZM12.3333 32.375C11.4854 32.375 10.7595 32.0667 10.1557 31.45C9.55189 30.8333 9.24998 30.101 9.24998 29.2531V20.0417L13.3739 31.3729C13.451 31.5528 13.5153 31.7262 13.5666 31.8932C13.618 32.0602 13.708 32.2208 13.8364 32.375H12.3333ZM20.2729 32.1823C19.4764 32.4649 18.6798 32.4264 17.8833 32.0667C17.0868 31.7069 16.5472 31.1288 16.2646 30.3323L9.44269 11.4854C9.16005 10.6889 9.19859 9.89879 9.55831 9.1151C9.91803 8.33142 10.4962 7.79826 11.2927 7.51563L22.8937 3.27604C23.6903 2.9934 24.4804 3.03194 25.264 3.39167C26.0477 3.75139 26.5809 4.32951 26.8635 5.12604L33.7239 23.9729C34.0066 24.7694 33.968 25.5595 33.6083 26.3432C33.2486 27.1269 32.6705 27.6601 31.8739 27.9427L20.2729 32.1823ZM19.1937 29.2917L30.8333 25.0521L23.9344 6.16667L12.3333 10.4062L19.1937 29.2917Z" fill="#7B00FF"/>
<path d="M22.5153 22.2391L20.0162 15.2697C19.9957 15.2125 19.968 15.1795 19.9331 15.1705C19.9041 15.1487 19.8616 15.1478 19.8054 15.1679L17.7133 15.9181L16.9707 13.8473L19.6947 12.8705C20.1908 12.6926 20.656 12.7085 21.0904 12.9181C21.5247 13.1277 21.8323 13.4848 22.0133 13.9894L24.6917 21.4587L22.5153 22.2391ZM20.6538 23.8092L19.9112 21.7384L26.328 19.4374L27.0706 21.5083L20.6538 23.8092Z" fill="#7B00FF"/>
</svg>
