<svg width="168" height="32" viewBox="0 0 168 32" fill="none" xmlns="http://www.w3.org/2000/svg">
<path d="M3.3581 28.3203L1.97011 27.6473C1.10086 27.2828 0.512014 26.6589 0.203572 25.7757C-0.10487 24.8924 -0.06281 24.0161 0.329753 23.1469L3.3581 16.5855V28.3203ZM10.0877 31.9796C9.16242 31.9796 8.37028 31.6431 7.71134 30.9701C7.05239 30.2971 6.72292 29.498 6.72292 28.5727V18.5203L11.2234 30.886C11.3075 31.0823 11.3776 31.2715 11.4337 31.4538C11.4898 31.6361 11.5879 31.8113 11.7281 31.9796H10.0877ZM18.7522 31.7693C17.8829 32.0777 17.0137 32.0356 16.1444 31.6431C15.2752 31.2505 14.6863 30.6196 14.3779 29.7504L6.93322 9.18287C6.62478 8.31362 6.66684 7.45138 7.0594 6.59616C7.45197 5.74093 8.08287 5.1591 8.95212 4.85065L21.6123 0.224019C22.4815 -0.0844236 23.3438 -0.0423633 24.199 0.3502C25.0542 0.742763 25.636 1.37367 25.9445 2.24291L33.4312 22.8104C33.7397 23.6797 33.6976 24.5419 33.305 25.3971C32.9125 26.2523 32.2816 26.8342 31.4123 27.1426L18.7522 31.7693ZM17.5745 28.6147L30.2767 23.9881L22.7479 3.37854L10.0877 8.00518L17.5745 28.6147Z" fill="#7B00FF"/>
<path d="M21.1993 20.9183L18.472 13.3126C18.4497 13.2502 18.4194 13.2142 18.3813 13.2044C18.3497 13.1805 18.3033 13.1796 18.242 13.2016L15.9589 14.0203L15.1485 11.7604L18.1212 10.6944C18.6626 10.5003 19.1703 10.5176 19.6443 10.7463C20.1183 10.975 20.454 11.3647 20.6515 11.9154L23.5744 20.0666L21.1993 20.9183ZM19.1679 22.6317L18.3575 20.3719L25.3601 17.8608L26.1704 20.1207L19.1679 22.6317Z" fill="#7B00FF"/>
<path d="M44.2473 26.6595V7.56184H51.3407C52.7048 7.56184 53.9689 7.78919 55.1329 8.2439C56.297 8.6986 57.3064 9.34429 58.1613 10.1809C59.0161 11.0176 59.68 12.0089 60.1529 13.1547C60.644 14.3006 60.8895 15.5647 60.8895 16.947V17.2198C60.8895 18.6203 60.644 19.8935 60.1529 21.0393C59.6618 22.1852 58.9797 23.1855 58.1067 24.0404C57.2519 24.877 56.2424 25.5227 55.0784 25.9774C53.9325 26.4321 52.6866 26.6595 51.3407 26.6595H44.2473ZM48.1214 24.6679L46.5117 23.0582H51.0406C52.1864 23.0582 53.205 22.8127 54.0962 22.3216C54.9874 21.8305 55.6786 21.1485 56.1697 20.2754C56.6789 19.4024 56.9336 18.3838 56.9336 17.2198V16.947C56.9336 15.7829 56.688 14.7735 56.1969 13.9186C55.7059 13.0456 55.0147 12.3726 54.1235 11.8997C53.2504 11.4087 52.2228 11.1631 51.0406 11.1631H46.5117L48.1214 9.55345V24.6679Z" fill="#7B00FF"/>
<path d="M68.9595 26.9323C67.6136 26.9323 66.4314 26.6504 65.4128 26.0866C64.3943 25.5045 63.594 24.6952 63.012 23.6584C62.43 22.6217 62.139 21.4213 62.139 20.0572V19.7843C62.139 18.5112 62.4027 17.3653 62.9301 16.3468C63.4758 15.3282 64.2306 14.5188 65.1946 13.9186C66.1767 13.3184 67.3135 13.0183 68.6049 13.0183C69.969 13.0183 71.133 13.3548 72.097 14.0278C73.0792 14.6825 73.7885 15.6192 74.225 16.8378C74.6616 18.0383 74.7798 19.457 74.5797 21.0939H64.7581V18.6658H72.6699L71.033 19.8662C71.1785 19.0113 71.1603 18.2929 70.9784 17.7109C70.7966 17.1107 70.4964 16.656 70.0781 16.3468C69.678 16.0194 69.196 15.8557 68.6321 15.8557C67.9592 15.8557 67.4044 16.0285 66.9679 16.374C66.5496 16.7196 66.2313 17.1925 66.013 17.7927C65.813 18.3748 65.7129 19.0386 65.7129 19.7843V20.4664C65.7129 21.1394 65.8403 21.7305 66.0949 22.2398C66.3677 22.749 66.7588 23.1492 67.268 23.4402C67.7773 23.7312 68.4048 23.8767 69.1505 23.8767C69.8053 23.8767 70.3509 23.7767 70.7875 23.5766C71.224 23.3765 71.615 23.0946 71.9606 22.7308L74.0341 24.8589C73.4702 25.55 72.7518 26.0684 71.8788 26.414C71.0239 26.7595 70.0508 26.9323 68.9595 26.9323Z" fill="#7B00FF"/>
<path d="M82.9394 26.9323C81.5753 26.9323 80.3658 26.6413 79.3109 26.0593C78.2559 25.4773 77.4193 24.677 76.8009 23.6584C76.2007 22.6217 75.9006 21.4395 75.9006 20.1117V19.8116C75.9006 18.4657 76.2098 17.2835 76.8282 16.2649C77.4466 15.2464 78.2832 14.4552 79.3381 13.8913C80.3931 13.3093 81.5935 13.0183 82.9394 13.0183C83.9398 13.0183 84.8764 13.2275 85.7495 13.6458C86.6225 14.0459 87.3228 14.6007 87.8502 15.31L85.6404 17.5199C85.313 17.1198 84.9128 16.8197 84.4399 16.6196C83.967 16.4195 83.4669 16.3195 82.9394 16.3195C82.3028 16.3195 81.7208 16.465 81.1933 16.756C80.6659 17.0288 80.2475 17.429 79.9383 17.9564C79.6473 18.4839 79.5018 19.1023 79.5018 19.8116V20.1117C79.5018 20.8393 79.6564 21.4668 79.9656 21.9942C80.2748 22.5035 80.6932 22.9036 81.2206 23.1946C81.7663 23.4856 82.3574 23.6312 82.994 23.6312C83.485 23.6312 83.967 23.5402 84.4399 23.3583C84.931 23.1764 85.3766 22.8763 85.7768 22.458L87.9321 24.6406C87.3864 25.3318 86.668 25.8865 85.7768 26.3048C84.8855 26.7232 83.9398 26.9323 82.9394 26.9323Z" fill="#7B00FF"/>
<path d="M91.5924 24.8861L91.3469 20.3027L97.7036 13.2911H102.151L91.5924 24.8861ZM89.6008 26.6595V6.74337H93.2293V26.6595H89.6008ZM97.8673 26.6595L93.6931 19.457L96.4759 17.0561L102.314 26.6595H97.8673Z" fill="#7B00FF"/>
<path d="M111.139 26.6595V22.458L110.703 21.0939V18.2565C110.703 17.5108 110.475 16.9743 110.021 16.6469C109.584 16.3195 109.02 16.1558 108.329 16.1558C107.692 16.1558 107.02 16.2831 106.31 16.5377C105.601 16.7924 104.973 17.1379 104.428 17.5745L102.818 15.1736C103.418 14.5188 104.237 14.0005 105.273 13.6185C106.31 13.2184 107.401 13.0183 108.547 13.0183C109.675 13.0183 110.666 13.2184 111.521 13.6185C112.376 14.0005 113.049 14.5643 113.54 15.31C114.031 16.0557 114.277 16.9743 114.277 18.0656V22.4034C114.277 23.1128 114.277 23.8221 114.277 24.5315C114.295 25.2408 114.322 25.9502 114.358 26.6595H111.139ZM107.401 26.9323C105.892 26.9323 104.682 26.5686 103.773 25.841C102.882 25.0953 102.436 24.1404 102.436 22.9764C102.436 22.1761 102.645 21.4668 103.064 20.8484C103.5 20.23 104.128 19.748 104.946 19.4024C105.765 19.0386 106.756 18.8567 107.92 18.8567C109.539 18.8567 110.748 19.2114 111.548 19.9208C112.349 20.6119 112.749 21.5395 112.749 22.7036H111.739C111.739 24.0495 111.385 25.0953 110.675 25.841C109.966 26.5686 108.875 26.9323 107.401 26.9323ZM108.384 24.3132C109.075 24.3132 109.639 24.1768 110.075 23.904C110.512 23.613 110.73 23.2401 110.73 22.7854C110.73 22.3307 110.512 21.9669 110.075 21.6941C109.657 21.4213 109.093 21.2849 108.384 21.2849C107.692 21.2849 107.129 21.4213 106.692 21.6941C106.274 21.9669 106.065 22.3307 106.065 22.7854C106.065 23.2401 106.283 23.613 106.719 23.904C107.156 24.1768 107.711 24.3132 108.384 24.3132Z" fill="#7B00FF"/>
<path d="M122.583 26.9323C121.383 26.9323 120.3 26.6504 119.336 26.0866C118.391 25.5227 117.636 24.7315 117.072 23.713C116.526 22.6763 116.254 21.4758 116.254 20.1117V19.8389C116.254 18.493 116.535 17.3107 117.099 16.2922C117.663 15.2555 118.427 14.4552 119.391 13.8913C120.355 13.3093 121.428 13.0183 122.61 13.0183C123.574 13.0183 124.438 13.2275 125.202 13.6458C125.984 14.0641 126.621 14.628 127.112 15.3373L126.375 16.2104V6.74337H130.004V26.6595H126.757V23.3856L127.467 24.1495C126.921 25.0407 126.23 25.7319 125.393 26.223C124.575 26.6959 123.638 26.9323 122.583 26.9323ZM123.183 23.7676C123.838 23.7676 124.42 23.6221 124.929 23.331C125.457 23.0218 125.866 22.5853 126.157 22.0215C126.466 21.4577 126.621 20.7756 126.621 19.9753C126.621 19.175 126.466 18.493 126.157 17.9291C125.866 17.3653 125.457 16.9379 124.929 16.6469C124.42 16.3377 123.838 16.1831 123.183 16.1831C122.583 16.1831 122.028 16.3286 121.519 16.6196C121.01 16.9106 120.61 17.3289 120.319 17.8746C120.028 18.4202 119.882 19.075 119.882 19.8389V20.1117C119.882 20.8756 120.028 21.5304 120.319 22.0761C120.61 22.6217 121.01 23.04 121.519 23.331C122.028 23.6221 122.583 23.7676 123.183 23.7676Z" fill="#7B00FF"/>
<path d="M139.051 26.9323C137.723 26.9323 136.523 26.6413 135.45 26.0593C134.395 25.4773 133.558 24.677 132.94 23.6584C132.339 22.6217 132.039 21.4304 132.039 20.0844V19.8116C132.039 18.4839 132.339 17.3107 132.94 16.2922C133.558 15.2737 134.395 14.4734 135.45 13.8913C136.523 13.3093 137.723 13.0183 139.051 13.0183C140.36 13.0183 141.543 13.3093 142.598 13.8913C143.653 14.4552 144.48 15.2555 145.08 16.2922C145.699 17.3107 146.008 18.4839 146.008 19.8116V20.0844C146.008 21.4304 145.699 22.6217 145.08 23.6584C144.48 24.677 143.653 25.4773 142.598 26.0593C141.543 26.6413 140.36 26.9323 139.051 26.9323ZM139.051 23.7676C139.706 23.7676 140.288 23.613 140.797 23.3038C141.306 22.9764 141.697 22.5399 141.97 21.9942C142.261 21.4304 142.407 20.7938 142.407 20.0844V19.8116C142.407 19.1023 142.261 18.4748 141.97 17.9291C141.697 17.3835 141.306 16.9561 140.797 16.6469C140.288 16.3377 139.706 16.1831 139.051 16.1831C138.378 16.1831 137.787 16.3468 137.278 16.6742C136.786 16.9834 136.395 17.4108 136.104 17.9564C135.813 18.4839 135.668 19.1023 135.668 19.8116V20.0844C135.668 20.7938 135.813 21.4304 136.104 21.9942C136.395 22.5399 136.786 22.9764 137.278 23.3038C137.787 23.613 138.378 23.7676 139.051 23.7676Z" fill="#7B00FF"/>
<path d="M154.278 26.9323C152.95 26.9323 151.75 26.6413 150.677 26.0593C149.622 25.4773 148.785 24.677 148.167 23.6584C147.566 22.6217 147.266 21.4304 147.266 20.0844V19.8116C147.266 18.4839 147.566 17.3107 148.167 16.2922C148.785 15.2737 149.622 14.4734 150.677 13.8913C151.75 13.3093 152.95 13.0183 154.278 13.0183C155.587 13.0183 156.77 13.3093 157.825 13.8913C158.88 14.4552 159.707 15.2555 160.307 16.2922C160.926 17.3107 161.235 18.4839 161.235 19.8116V20.0844C161.235 21.4304 160.926 22.6217 160.307 23.6584C159.707 24.677 158.88 25.4773 157.825 26.0593C156.77 26.6413 155.587 26.9323 154.278 26.9323ZM154.278 23.7676C154.933 23.7676 155.515 23.613 156.024 23.3038C156.533 22.9764 156.924 22.5399 157.197 21.9942C157.488 21.4304 157.634 20.7938 157.634 20.0844V19.8116C157.634 19.1023 157.488 18.4748 157.197 17.9291C156.924 17.3835 156.533 16.9561 156.024 16.6469C155.515 16.3377 154.933 16.1831 154.278 16.1831C153.605 16.1831 153.014 16.3468 152.505 16.6742C152.013 16.9834 151.622 17.4108 151.331 17.9564C151.04 18.4839 150.895 19.1023 150.895 19.8116V20.0844C150.895 20.7938 151.04 21.4304 151.331 21.9942C151.622 22.5399 152.013 22.9764 152.505 23.3038C153.014 23.613 153.605 23.7676 154.278 23.7676Z" fill="#7B00FF"/>
<path d="M163.448 19.9208L163.284 7.56184H167.35L167.159 19.9208H163.448ZM163.394 26.6595V22.8127H167.268V26.6595H163.394Z" fill="#7B00FF"/>
</svg>
